<svg xmlns="http://www.w3.org/2000/svg" viewBox="0 0 64 64" width="64" height="64">
  <!-- Fond noir avec bordure orange -->
  <rect width="64" height="64" fill="#1a1a1a" rx="8"/>
  <rect width="64" height="64" fill="none" stroke="#ff6b35" stroke-width="3" rx="8"/>
  
  <!-- Lettre C -->
  <path d="M 20 32 Q 20 20 32 20 Q 38 20 40 23 L 37 27 Q 35 24 32 24 Q 24 24 24 32 Q 24 40 32 40 Q 35 40 37 37 L 40 41 Q 38 44 32 44 Q 20 44 20 32 Z" fill="#ff6b35"/>
  
  <!-- Lettre P -->
  <path d="M 42 20 L 46 20 L 46 30 Q 46 34 50 34 Q 54 34 54 30 L 54 26 Q 54 22 50 22 Q 47 22 46 24 L 46 20 Q 48 18 50 18 Q 58 18 58 26 L 58 30 Q 58 38 50 38 Q 42 38 42 30 Z" fill="#ff6b35"/>
  <rect x="42" y="20" width="4" height="24" fill="#ff6b35"/>
</svg>
